<?xml version="1.0" encoding="UTF-8"?>
<svg id="Layer_2" data-name="Layer 2" xmlns="http://www.w3.org/2000/svg" viewBox="0 0 150.3 62.47">
  <defs>
    <style>
      .cls-1 {
        fill: #23252b;
        stroke-width: 0px;
      }
    </style>
  </defs>
  <g id="Layer_1-2" data-name="Layer 1">
    <g>
      <path class="cls-1" d="M23.43,22.85H6.31c.85,3.08,3.18,5.31,6.97,5.31,2.47,0,5.07-.81,7.02-2.18l1.75,5.26s-3.23,2.23-8.87,2.23c-9.15,0-13.18-5.69-13.18-12.52s3.94-12.52,12.14-12.52c7.35,0,11.38,4.65,11.38,12.52,0,.52-.05,1.28-.09,1.9ZM17.07,18.29c0-1.94-1.66-4.55-5.31-4.55-3.04,0-5.31,2.61-5.31,4.55h10.62Z"/>
      <path class="cls-1" d="M43.87,11.7l.76-11.7h6.07v33.47h-6.07l-.76-3.27c-1.9,2.18-4.36,3.27-7.21,3.27-6.5,0-11.76-5.6-11.76-12.52s5.26-12.52,11.76-12.52c2.85,0,5.31,1.09,7.21,3.27ZM43.87,20.95c0-3.56-2.89-6.45-6.45-6.45s-6.45,2.89-6.45,6.45,2.89,6.45,6.45,6.45,6.45-2.89,6.45-6.45Z"/>
      <path class="cls-1" d="M53.21,22.85l.76-12.98h6.07l-.76,12.22c0,3.65,1.42,5.31,4.55,5.31,2.75,0,5.31-1.8,5.31-6.07l.76-11.46h6.07v23.61h-6.07l-.76-3.04c-1.61,1.9-3.56,3.04-7.11,3.04-5.41,0-8.82-3.51-8.82-10.62Z"/>
      <path class="cls-1" d="M36.42,48.05l.11,13.66h-6.07l-.11-12.9c0-3.65-.9-5.31-3.79-5.31s-3.43,1.8-3.43,6.07l-.46,12.14h-6.07l-.67-12.9c0-3.65-1.09-5.31-3.79-5.31s-3.9,1.8-3.9,6.07l.02,12.14H2.18l.09-23.93h6.07l-.76,2.68c1.47-1.85,3.65-3.04,6.07-3.04,2.99,0,5.17,1.04,6.59,3.18,1.75-1.94,3.84-3.18,7.07-3.18,5.41,0,9.11,3.51,9.11,10.62Z"/>
      <path class="cls-1" d="M63.6,49.95c0,6.92-5.6,12.52-12.52,12.52s-12.52-5.6-12.52-12.52,5.6-12.52,12.52-12.52,12.52,5.6,12.52,12.52ZM57.53,49.95c0-3.56-2.89-6.45-6.45-6.45s-6.45,2.89-6.45,6.45,2.89,6.45,6.45,6.45,6.45-2.89,6.45-6.45Z"/>
      <path class="cls-1" d="M87.74,48.05v13.66h-6.07v-12.9c0-3.65-1.42-5.31-4.55-5.31-2.75,0-4.04,1.8-4.04,6.07l-.18,12.14h-6.07l-.33-23.93h6.07l-.76,2.68c1.61-1.9,3.56-3.04,7.11-3.04,5.41,0,8.82,3.51,8.82,10.62Z"/>
      <path class="cls-1" d="M108.85,40.7l.76-11.7h6.07v33.47h-6.07l-.76-3.27c-1.9,2.18-4.36,3.27-7.21,3.27-6.5,0-11.76-5.6-11.76-12.52s5.26-12.52,11.76-12.52c2.85,0,5.31,1.09,7.21,3.27ZM108.85,49.95c0-3.56-2.89-6.45-6.45-6.45s-6.45,2.89-6.45,6.45,2.89,6.45,6.45,6.45,6.45-2.89,6.45-6.45Z"/>
      <path class="cls-1" d="M140.48,51.85h-17.12c.85,3.08,3.18,5.31,6.97,5.31,2.47,0,5.07-.81,7.02-2.18l1.75,5.26s-3.23,2.23-8.87,2.23c-9.15,0-13.18-5.69-13.18-12.52s3.94-12.52,12.14-12.52c7.35,0,11.38,4.65,11.38,12.52,0,.52-.05,1.28-.09,1.9ZM134.12,47.29c0-1.94-1.66-4.55-5.31-4.55-3.04,0-5.31,2.61-5.31,4.55h10.62Z"/>
      <path class="cls-1" d="M142.71,58.68c0-2.13,1.66-3.79,3.79-3.79s3.79,1.66,3.79,3.79-1.66,3.79-3.79,3.79-3.79-1.66-3.79-3.79Z"/>
    </g>
  </g>
</svg>